<svg xmlns="http://www.w3.org/2000/svg" xmlns:se="http://svg-edit.googlecode.com" xmlns:xlink="http://www.w3.org/1999/xlink" xmlns:dc="http://purl.org/dc/elements/1.1/" xmlns:cc="http://creativecommons.org/ns#" xmlns:rdf="http://www.w3.org/1999/02/22-rdf-syntax-ns#" xmlns:inkscape="http://www.inkscape.org/namespaces/inkscape" width="411.1999999999998" height="396.4" style="">                                    <title>my vector image</title>                                    <!-- Created with Vector Paint - http://www.vectorpaint.yaks.com/ https://chrome.google.com/webstore/detail/hnbpdiengicdefcjecjbnjnoifekhgdo -->                                    <rect id="backgroundrect" width="100%" height="100%" x="0" y="0" fill="none" stroke="none" class="selected" style=""/>                                <g class="currentLayer" style=""><title>Layer 1</title><path fill="none" fill-opacity="1" stroke="#222222" stroke-opacity="1" stroke-width="46" stroke-dasharray="none" stroke-linejoin="round" stroke-linecap="butt" stroke-dashoffset="" fill-rule="nonzero" opacity="1" marker-start="" marker-mid="" marker-end="" d="M65,215.9000015258789 C65,134.9607750065419 130.560773480663,69.4000015258789 211.5,69.4000015258789 C292.439226519337,69.4000015258789 358,134.9607750065419 358,215.9000015258789 C358,296.8392280452159 292.439226519337,362.4000015258789 211.5,362.4000015258789 C130.560773480663,362.4000015258789 65,296.8392280452159 65,215.9000015258789 z" id="svg_10" class=""/><path fill="#ffffff" fill-opacity="1" stroke="#222222" stroke-opacity="1" stroke-width="10" stroke-dasharray="none" stroke-linejoin="round" stroke-linecap="butt" stroke-dashoffset="" fill-rule="nonzero" opacity="1" marker-start="" marker-mid="" marker-end="" d="M60,94.4000015258789 C60,73.40552638775736 77.90055248618785,56.400001525878906 100,56.400001525878906 C122.09944751381215,56.400001525878906 140,73.40552638775736 140,94.4000015258789 C140,115.39447666400045 122.09944751381215,132.4000015258789 100,132.4000015258789 C77.90055248618785,132.4000015258789 60,115.39447666400045 60,94.4000015258789 z" id="svg_3" class=""/><path fill="#ffffff" fill-opacity="1" stroke="#222222" stroke-opacity="1" stroke-width="10" stroke-dasharray="none" stroke-linejoin="round" stroke-linecap="butt" stroke-dashoffset="" fill-rule="nonzero" opacity="1" marker-start="" marker-mid="" marker-end="" d="M10,216.4000015258789 C10,195.40552638775736 27.90055248618785,178.4000015258789 50,178.4000015258789 C72.09944751381215,178.4000015258789 90,195.40552638775736 90,216.4000015258789 C90,237.39447666400042 72.09944751381215,254.4000015258789 50,254.4000015258789 C27.90055248618785,254.4000015258789 10,237.39447666400042 10,216.4000015258789 z" class="" id="svg_4"/><path fill="#ffffff" fill-opacity="1" stroke="#222222" stroke-opacity="1" stroke-width="10" stroke-dasharray="none" stroke-linejoin="round" stroke-linecap="butt" stroke-dashoffset="" fill-rule="nonzero" opacity="1" marker-start="" marker-mid="" marker-end="" d="M205.625,50.150001525878906 C205.625,29.155526387757362 223.52555248618785,12.150001525878906 245.625,12.150001525878906 C267.72444751381215,12.150001525878906 285.625,29.155526387757362 285.625,50.150001525878906 C285.625,71.14447666400042 267.72444751381215,88.1500015258789 245.625,88.1500015258789 C223.52555248618785,88.1500015258789 205.625,71.14447666400042 205.625,50.150001525878906 z" class="" id="svg_1"/><path fill="#ffffff" fill-opacity="1" stroke="#222222" stroke-opacity="1" stroke-width="10" stroke-dasharray="none" stroke-linejoin="round" stroke-linecap="butt" stroke-dashoffset="" fill-rule="nonzero" opacity="1" marker-start="" marker-mid="" marker-end="" d="M316.25,152.0250015258789 C316.25,131.03052638775736 334.15055248618785,114.0250015258789 356.25,114.0250015258789 C378.34944751381215,114.0250015258789 396.25,131.03052638775736 396.25,152.0250015258789 C396.25,173.01947666400042 378.34944751381215,190.0250015258789 356.25,190.0250015258789 C334.15055248618785,190.0250015258789 316.25,173.01947666400042 316.25,152.0250015258789 z" class="" id="svg_5"/><path fill="#ffffff" fill-opacity="1" stroke="#222222" stroke-opacity="1" stroke-width="10" stroke-dasharray="none" stroke-linejoin="round" stroke-linecap="butt" stroke-dashoffset="" fill-rule="nonzero" opacity="1" marker-start="" marker-mid="" marker-end="" d="M281.07499998807907,318.5250015258789 C281.07499998807907,297.5305263877574 298.9755524742669,280.5250015258789 321.07499998807907,280.5250015258789 C343.1744475018912,280.5250015258789 361.07499998807907,297.5305263877574 361.07499998807907,318.5250015258789 C361.07499998807907,339.5194766640004 343.1744475018912,356.5250015258789 321.07499998807907,356.5250015258789 C298.9755524742669,356.5250015258789 281.07499998807907,339.5194766640004 281.07499998807907,318.5250015258789 z" class="" id="svg_6"/><path fill="#ffffff" fill-opacity="1" stroke="#222222" stroke-opacity="1" stroke-width="10" stroke-dasharray="none" stroke-linejoin="round" stroke-linecap="butt" stroke-dashoffset="" fill-rule="nonzero" opacity="1" marker-start="" marker-mid="" marker-end="" d="M118.17499923706055,347.50000190734863 C118.17499923706055,326.5055267692271 136.0755517232484,309.50000190734863 158.17499923706055,309.50000190734863 C180.2744467508727,309.50000190734863 198.17499923706055,326.5055267692271 198.17499923706055,347.50000190734863 C198.17499923706055,368.49447704547015 180.2744467508727,385.50000190734863 158.17499923706055,385.50000190734863 C136.0755517232484,385.50000190734863 118.17499923706055,368.49447704547015 118.17499923706055,347.50000190734863 z" class="" id="svg_7"/><path fill="#ffffff" fill-opacity="1" stroke="#222222" stroke-opacity="1" stroke-width="10" stroke-dasharray="none" stroke-linejoin="round" stroke-linecap="butt" stroke-dashoffset="" fill-rule="nonzero" opacity="1" marker-start="" marker-mid="" marker-end="" d="M74.19999998807907,225.9000015258789 C74.19999998807907,144.9607750065419 139.76077346874206,79.4000015258789 220.69999998807907,79.4000015258789 C301.6392265074161,79.4000015258789 367.19999998807907,144.9607750065419 367.19999998807907,225.9000015258789 C367.19999998807907,306.8392280452159 301.6392265074161,372.4000015258789 220.69999998807907,372.4000015258789 C139.76077346874206,372.4000015258789 74.19999998807907,306.8392280452159 74.19999998807907,225.9000015258789 z" class="" id="svg_2"/></g><defs><filter id="f094" inkscape:label="Glow" inkscape:menu="Shadows and Glows" inkscape:menu-tooltip="Glow of object's own color at the edges" color-interpolation-filters="sRGB">
            <feGaussianBlur stdDeviation="5" result="result91"/>
            <feComposite in="SourceGraphic" operator="over" in2="result91"/>
        </filter></defs></svg>